Coordinates
version=1
nRows=16
nColumns=40
inDegrees=yes

Units are S.I. units (second, meters, Newtons, ...)
Angles are in degrees.

endheader
time	pelvis_tilt	pelvis_list	pelvis_rotation	pelvis_tx	pelvis_ty	pelvis_tz	hip_flexion_r	hip_adduction_r	hip_rotation_r	knee_angle_r	knee_angle_r_beta	ankle_angle_r	subtalar_angle_r	mtp_angle_r	hip_flexion_l	hip_adduction_l	hip_rotation_l	knee_angle_l	knee_angle_l_beta	ankle_angle_l	subtalar_angle_l	mtp_angle_l	lumbar_extension	lumbar_bending	lumbar_rotation	arm_flex_r	arm_add_r	arm_rot_r	elbow_flex_r	pro_sup_r	wrist_flex_r	wrist_dev_r	arm_flex_l	arm_add_l	arm_rot_l	elbow_flex_l	pro_sup_l	wrist_flex_l	wrist_dev_l
     22.83228571	     -7.97978826	     -4.78927675	     -1.96151966	      0.83905427	      0.92758930	      0.51949008	     13.94763941	      3.93831728	    -14.59288711	     14.16708798	     14.16708798	      9.94395753	     -0.20701985	     -4.24745914	     35.38640401	    -10.62790691	      0.72488115	     44.98692139	     44.98692139	     12.14455280	    -18.97998879	     17.31997084	    -10.09071430	      5.50345900	      0.95582418	     17.51077508	    -21.11169216	     -5.83715676	     82.23737008	     44.75768922	      0.00000000	      0.00000000	     -1.26398887	     -8.60234436	     -6.89662400	     25.75216358	     46.70002143	      0.00000000	      0.00000000
     22.84457143	     -8.11218809	     -4.77625691	     -1.59844482	      0.83774560	      0.92736019	      0.51899759	     13.63400891	      3.84677456	    -14.99257928	     13.97054554	     13.97054554	     10.12064932	      0.02130755	     -4.53998816	     35.67497342	    -10.21211489	      0.94642509	     41.79432953	     41.79432953	     11.65114289	    -18.81303807	     16.05708778	    -10.22895565	      5.51477913	      1.26029728	     18.03575298	    -21.47197609	     -6.94039954	     85.67045200	     44.71906965	      0.00000000	      0.00000000	     -1.93954969	     -8.56708965	     -7.21435614	     26.23984225	     46.71166368	      0.00000000	      0.00000000
     22.85685714	     -8.33216841	     -4.71133198	     -1.27725710	      0.83642272	      0.92702192	      0.51838524	     13.43499408	      3.72823970	    -15.13420862	     13.79790977	     13.79790977	     10.36193390	     -0.01233784	     -4.61960764	     36.02941451	     -9.67142291	      1.30927606	     38.72240493	     38.72240493	     11.60462185	    -18.46036634	     16.11365073	    -10.15855098	      5.41699046	      1.18655246	     19.39110406	    -21.68002207	     -7.36142360	     86.89579882	     44.70468471	      0.00000000	      0.00000000	     -2.45112557	     -8.55183580	     -7.24950841	     26.01824444	     46.70454354	      0.00000000	      0.00000000
     22.86914286	     -8.49219208	     -4.70465329	     -0.95402255	      0.83527037	      0.92662470	      0.51762110	     13.18404282	      3.60631824	    -15.59069952	     13.70212328	     13.70212328	     10.67825044	      0.41172437	     -4.75601489	     36.17782764	     -9.20835554	      1.65148825	     35.54854799	     35.54854799	     10.68024945	    -18.00127182	     13.68952952	    -10.21533669	      5.42849124	      1.43010995	     20.10585815	    -21.94921335	     -8.34737086	     89.56389063	     44.69094499	      0.00000000	      0.00000000	     -2.91326654	     -8.42876787	     -7.67413984	     26.27794449	     46.73962385	      0.00000000	      0.00000000
     22.88142857	     -8.65751429	     -4.68728325	     -0.66832857	      0.83417521	      0.92626402	      0.51684525	     12.93210501	      3.52101605	    -15.73053931	     13.57602421	     13.57602421	     10.89480139	      0.38129882	     -4.80392523	     36.37568706	     -8.74336804	      2.05693416	     32.71754075	     32.71754075	     10.67952419	    -17.04493267	     13.58937265	    -10.19535688	      5.38673728	      1.40688242	     21.43742556	    -22.03861590	     -8.71629887	     90.62736649	     44.68174031	      0.00000000	      0.00000000	     -3.30808202	     -8.35007735	     -7.73039217	     26.05953001	     46.73703491	      0.00000000	      0.00000000
     22.89371429	     -8.78166796	     -4.66065782	     -0.41160056	      0.83331581	      0.92591605	      0.51602310	     12.60141235	      3.42514043	    -15.94534583	     13.42221217	     13.42221217	     11.17370846	      0.51622106	     -4.86648938	     36.45966125	     -8.34475015	      2.28784823	     30.04233567	     30.04233567	     10.67442585	    -15.76879914	     13.20302913	    -10.20425953	      5.35671492	      1.38603703	     22.66530454	    -21.99820878	     -9.09428444	     91.88142782	     44.66713025	      0.00000000	      0.00000000	     -3.69374533	     -8.27762269	     -7.84206257	     25.92996754	     46.74347498	      0.00000000	      0.00000000
     22.90600000	     -8.88871227	     -4.67080177	     -0.18727124	      0.83262003	      0.92553888	      0.51512439	     12.22851985	      3.36809278	    -16.17256409	     13.24549343	     13.24549343	     11.46186318	      0.69311847	     -4.91674103	     36.51018288	     -8.05659368	      2.35442927	     27.62260976	     27.62260976	     10.64315235	    -14.29106583	     12.78134175	    -10.19748706	      5.35520864	      1.43913244	     23.79070351	    -21.95929450	     -9.48087439	     92.99933064	     44.65648598	      0.00000000	      0.00000000	     -4.00056940	     -8.17897939	     -7.97202389	     25.86642148	     46.75468674	      0.00000000	      0.00000000
     22.91828571	     -9.02359307	     -4.69718190	      0.00417074	      0.83215450	      0.92508080	      0.51418384	     11.86813089	      3.33732914	    -16.30320531	     13.06340911	     13.06340911	     11.71743685	      0.82733937	     -4.96252513	     36.58468371	     -7.80912417	      2.37290120	     25.53263080	     25.53263080	     10.65734558	    -12.91567462	     12.61519215	    -10.10137801	      5.38523628	      1.57864692	     24.86441376	    -21.97117054	     -9.79443093	     93.80683043	     44.65009992	      0.00000000	      0.00000000	     -4.22116739	     -8.04532720	     -8.05082418	     25.81563361	     46.76083833	      0.00000000	      0.00000000
     22.93057143	     -9.02565595	     -4.71009150	      0.15887489	      0.83199591	      0.92482606	      0.51325460	     11.27729414	      3.31654773	    -16.46202478	     12.75554529	     12.75554529	     11.99983268	      1.11646020	     -4.97348612	     36.43574930	     -7.64969508	      2.05227432	     23.65733435	     23.65733435	     10.53178655	    -11.47677813	     12.31045798	    -10.16683574	      5.36447054	      1.62578567	     25.84028540	    -21.66448338	    -10.14667228	     94.73663231	     44.64278601	      0.00000000	      0.00000000	     -4.44650262	     -7.95426535	     -8.18358486	     25.76228894	     46.77484157	      0.00000000	      0.00000000
     22.94285714	     -9.04385398	     -4.82925797	      0.25357964	      0.83215507	      0.92438642	      0.51232157	     10.66098163	      3.40891862	    -16.70296518	     12.42262068	     12.42262068	     12.35435666	      1.61199473	     -4.77760978	     36.25432752	     -7.64344865	      1.62863788	     22.02792333	     22.02792333	      9.68664437	    -10.44847390	     10.23898046	    -10.15620890	      5.45784502	      1.88470243	     26.57939584	    -21.33090961	    -10.99782202	     95.70371859	     44.69957628	      0.00000000	      0.00000000	     -4.53525276	     -7.70654192	     -9.15386118	     25.82194596	     46.89471836	      0.00000000	      0.00000000
     22.95514286	     -9.08005829	     -4.88155629	      0.31046947	      0.83247543	      0.92394068	      0.51131110	     10.07029170	      3.45133229	    -16.70577037	     12.10087530	     12.10087530	     12.61106035	      1.76516210	     -4.81427454	     36.08929657	     -7.56770674	      1.20202091	     20.83197399	     20.83197399	      9.48555866	     -9.70577526	     10.42668028	    -10.06159339	      5.47130324	      2.02926009	     27.40807556	    -21.09897622	    -11.07139055	     96.09140252	     44.69854277	      0.00000000	      0.00000000	     -4.62416916	     -7.59782834	     -9.19606120	     25.75729156	     46.89372292	      0.00000000	      0.00000000
     22.96742857	     -9.09431996	     -4.95201608	      0.32337029	      0.83314085	      0.92343396	      0.51027923	      9.38483157	      3.52903673	    -16.70051099	     11.68834905	     11.68834905	     12.88338457	      2.02043095	     -4.84505042	     35.85864535	     -7.55436472	      0.67747510	     19.95093125	     19.95093125	      9.21046463	     -9.16901304	     10.55848989	     -9.93102666	      5.50866438	      2.17431838	     28.14684825	    -20.75133704	    -11.16190949	     96.39757135	     44.69933705	      0.00000000	      0.00000000	     -4.69918067	     -7.48525382	     -9.23891001	     25.70219101	     46.89487559	      0.00000000	      0.00000000
     22.97971429	     -9.16872163	     -5.06708999	      0.22979461	      0.83403159	      0.92267319	      0.50925968	      8.79973980	      3.64367397	    -16.62433851	     11.37549687	     11.37549687	     13.17485292	      2.25283209	     -4.89716063	     35.71291821	     -7.64247393	      0.06264617	     19.47277175	     19.47277175	      8.83364161	     -9.01728573	     10.68280611	     -9.68908851	      5.60382027	      2.46093026	     28.71083327	    -20.42843279	    -11.18298703	     96.57968721	     44.69891874	      0.00000000	      0.00000000	     -4.73949813	     -7.37116958	     -9.26085364	     25.69645270	     46.89487639	      0.00000000	      0.00000000
     22.99200000	     -9.03366028	     -5.21219719	      0.21152753	      0.83544959	      0.92219555	      0.50814084	      7.70332332	      3.84324939	    -16.73861717	     10.58083086	     10.58083086	     13.40343841	      2.89881782	     -4.80419115	     35.22522447	     -7.78836350	     -0.67940767	     19.09314675	     19.09314675	      8.12898362	     -8.67367110	      9.93857740	     -9.63096351	      5.67937354	      2.31911396	     29.35630745	    -19.55575081	    -11.37839506	     96.43011203	     44.72701692	      0.00000000	      0.00000000	     -4.93208161	     -7.29850117	     -9.47102468	     25.76341229	     46.91043130	      0.00000000	      0.00000000
     23.00428571	     -9.07207048	     -5.28990749	      0.09138778	      0.83685879	      0.92127546	      0.50699621	      7.08447240	      3.90000791	    -16.58527003	     10.35181407	     10.35181407	     13.79033346	      3.06974622	     -4.86348276	     34.91672069	     -7.87169006	     -1.27569455	     18.98312067	     18.98312067	      7.52642374	     -8.79231868	      9.94241152	     -9.35044773	      5.69077465	      2.59009455	     29.60980705	    -19.22215711	    -11.27691253	     96.45356119	     44.72704723	      0.00000000	      0.00000000	     -4.93205201	     -7.22518370	     -9.51345121	     25.82328141	     46.91335137	      0.00000000	      0.00000000
     23.01657143	     -8.95162316	     -5.42763494	     -0.03011666	      0.83873803	      0.92054309	      0.50581747	      6.03168394	      4.08388126	    -16.50414058	      9.67775168	      9.67775168	     14.10180524	      3.53573702	     -4.67612843	     34.34076461	     -8.03369575	     -1.86172789	     18.90700168	     18.90700168	      6.58444408	     -8.94986410	      9.11257138	     -9.20244395	      5.76512974	      2.59051426	     29.92860706	    -18.57034616	    -11.16401930	     96.25834145	     44.74048197	      0.00000000	      0.00000000	     -5.06987970	     -7.19484562	     -9.66909663	     25.97785662	     46.92395536	      0.00000000	      0.00000000
